<?xml version="1.0" standalone="no"?>
<!DOCTYPE svg PUBLIC "-//W3C//DTD SVG 20010904//EN"
 "http://www.w3.org/TR/2001/REC-SVG-20010904/DTD/svg10.dtd">
<svg version="1.0" xmlns="http://www.w3.org/2000/svg"
 width="700.000000pt" height="700.000000pt" viewBox="0 0 700.000000 700.000000"
 preserveAspectRatio="xMidYMid meet">
<metadata>
Created by potrace 1.14, written by Peter Selinger 2001-2017
</metadata>
<g transform="translate(0.000000,700.000000) scale(0.100000,-0.100000)"
fill="#000000" stroke="none">
<path d="M0 3500 l0 -3500 3500 0 3500 0 0 3500 0 3500 -3500 0 -3500 0 0
-3500z m6910 0 l0 -3410 -3410 0 -3410 0 0 3410 0 3410 3410 0 3410 0 0 -3410z"/>
<path d="M1150 4923 c0 -10 952 -2907 962 -2926 8 -16 34 -17 371 -15 l362 3
330 982 c182 541 332 983 336 983 3 0 146 -435 319 -967 172 -533 317 -976
322 -985 8 -17 36 -18 373 -18 l364 0 170 517 c389 1186 791 2419 791 2426 0
4 -147 7 -327 7 l-328 0 -294 -898 c-162 -493 -315 -959 -341 -1036 l-46 -138
-334 1036 -334 1036 -319 -2 -319 -3 -342 -1017 c-187 -560 -343 -1018 -346
-1018 -3 0 -127 377 -275 838 -147 460 -295 919 -327 1020 l-59 182 -354 0
c-195 0 -355 -3 -355 -7z"/>
</g>
</svg>
